<svg width="195" height="32" viewBox="0 0 195 32" fill="none" xmlns="http://www.w3.org/2000/svg">
<g id="horizontal-logo-gradient-white-atlassian">
<g id="Group">
<g id="Group_2">
<g id="Group_3">
<path id="Vector" d="M7.05797 11.0258C6.69767 10.6294 6.15719 10.6655 5.90497 11.1339L0.0680731 22.8437C-0.148109 23.3121 0.176147 23.8526 0.680572 23.8526H8.82347C9.07568 23.8526 9.32788 23.7085 9.43597 23.4563C11.2015 19.8172 10.1206 14.3045 7.05797 11.0258Z" fill="url(#paint0_linear)"/>
<path id="Vector_2" d="M11.3456 0.360786C8.06682 5.54916 8.28301 11.278 10.4448 15.6016C12.6066 19.9253 14.264 23.204 14.3721 23.4562C14.4802 23.7085 14.7324 23.8526 14.9846 23.8526H23.1275C23.6319 23.8526 23.9922 23.3121 23.74 22.8437C23.74 22.8437 12.7868 0.937272 12.4985 0.396816C12.2824 -0.107609 11.6699 -0.143639 11.3456 0.360786Z" fill="white"/>
</g>
</g>
<g id="Group_4">
<g id="Group_5">
<g id="Group_6">
<g id="Group_7">
<path id="Vector_3" d="M121.815 18.0517C121.815 14.6288 119.977 13.0074 114.861 11.8905C112.014 11.278 111.33 10.6294 111.33 9.72868C111.33 8.61174 112.339 8.10732 114.212 8.10732C116.482 8.10732 118.716 8.7919 120.842 9.76472V5.26092C119.365 4.50428 117.059 3.9278 114.356 3.9278C109.276 3.9278 106.646 6.12565 106.646 9.76472C106.646 12.6471 107.979 14.9531 113.239 15.9619C116.374 16.6105 117.023 17.1149 117.023 18.1598C117.023 19.1686 116.374 19.8172 114.14 19.8172C111.582 19.8172 108.52 18.9525 106.538 17.7635V22.4834C108.123 23.2761 110.213 24.1408 114.104 24.1408C119.617 24.1408 121.815 21.6908 121.815 18.0517Z" fill="white"/>
<path id="Vector_4" d="M177.229 4.21603V23.8526H181.409V8.89998L183.175 12.8633L189.083 23.8526H194.344V4.21603H190.164V16.8987L188.579 13.2236L183.823 4.21603H177.229Z" fill="white"/>
<path id="Vector_5" d="M150.675 4.21603H146.099V23.8166H150.675V4.21603Z" fill="white"/>
<path id="Vector_6" d="M140.803 18.0517C140.803 14.6288 138.965 13.0074 133.849 11.8905C131.003 11.278 130.318 10.6294 130.318 9.72868C130.318 8.61174 131.327 8.10732 133.2 8.10732C135.47 8.10732 137.704 8.7919 139.83 9.76472V5.26092C138.353 4.50428 136.047 3.9278 133.345 3.9278C128.264 3.9278 125.634 6.12565 125.634 9.76472C125.634 12.6471 126.967 14.9531 132.228 15.9619C135.362 16.6105 136.011 17.1149 136.011 18.1598C136.011 19.1686 135.362 19.8172 133.128 19.8172C130.57 19.8172 127.508 18.9525 125.526 17.7635V22.4834C127.111 23.2761 129.201 24.1408 133.092 24.1408C138.641 24.1408 140.803 21.6908 140.803 18.0517Z" fill="white"/>
<path id="Vector_7" d="M71.1921 4.21603V23.8526H80.56L82.0373 19.601H75.768V4.21603H71.1921Z" fill="white"/>
<path id="Vector_8" d="M52.6365 4.21603V8.46762H57.7167V23.8526H62.2926V8.46762H67.7332V4.21603H52.6365Z" fill="white"/>
</g>
</g>
<path id="Vector_9" d="M45.9708 4.21603H39.9537L33.1079 23.8166H38.3323L39.3052 20.5018C40.4581 20.826 41.6832 21.0422 42.9802 21.0422C44.2413 21.0422 45.4664 20.8621 46.6554 20.5018L47.6282 23.8166H52.8526L45.9708 4.21603ZM42.9442 17.0068C42.0795 17.0068 41.2148 16.8627 40.4221 16.6465L42.9442 8.07128L45.4664 16.6465C44.6737 16.8627 43.845 17.0068 42.9442 17.0068Z" fill="white"/>
<path id="Vector_10" d="M96.7736 4.21603H90.7565L83.9108 23.8166H89.1352L90.108 20.5018C91.261 20.826 92.486 21.0422 93.7831 21.0422C95.0442 21.0422 96.2692 20.8621 97.4582 20.5018L98.431 23.8166H103.655L96.7736 4.21603ZM93.7471 17.0068C92.8823 17.0068 92.0176 16.8627 91.2249 16.6465L93.7471 8.07128L96.2692 16.6465C95.4765 16.8627 94.6118 17.0068 93.7471 17.0068Z" fill="white"/>
<path id="Vector_11" d="M167.105 4.21603H161.088L154.242 23.8166H159.466L160.439 20.5018C161.592 20.826 162.817 21.0422 164.114 21.0422C165.375 21.0422 166.6 20.8621 167.789 20.5018L168.762 23.8166H173.987L167.105 4.21603ZM164.114 17.0068C163.25 17.0068 162.385 16.8627 161.592 16.6465L164.114 8.07128L166.637 16.6465C165.808 16.8627 164.979 17.0068 164.114 17.0068Z" fill="white"/>
</g>
</g>
</g>
</g>
<defs>
<linearGradient id="paint0_linear" x1="10.2586" y1="12.8161" x2="4.08618" y2="23.507" gradientUnits="userSpaceOnUse">
<stop stop-color="white" stop-opacity="0.4"/>
<stop offset="0.9228" stop-color="white"/>
</linearGradient>
</defs>
</svg>
