<svg width="1200" height="309" viewBox="0 0 1200 309" fill="none" xmlns="http://www.w3.org/2000/svg">
<path d="M379.645 111.728C377.378 95.0338 368.19 80.5513 351.503 67.446L341.902 60.9769L335.475 70.7015C327.275 83.2224 323.155 100.626 324.515 117.279C325.133 123.122 327.028 133.64 332.961 142.822C327.028 146.077 315.326 150.543 299.752 150.209H1.68763L1.11079 153.673C-1.69103 170.41 -1.64983 222.664 31.8484 262.814C57.3119 293.324 95.4661 308.808 145.24 308.808C253.192 308.808 333.085 258.474 370.497 166.946C385.207 167.238 416.892 167.029 433.167 135.56C433.579 134.85 434.568 132.93 437.411 126.962L438.977 123.707L429.83 117.53C419.941 110.81 397.197 108.348 379.686 111.728H379.645ZM240.007 0H194.683V41.7364H240.007V0ZM240.007 50.0837H194.683V91.8201H240.007V50.0837ZM186.443 50.0837H141.119V91.8201H186.443V50.0837ZM132.879 50.0837H87.5551V91.8201H132.879V50.0837ZM79.3145 100.167H33.9909V141.904H79.3145V100.167ZM132.879 100.167H87.5551V141.904H132.879V100.167ZM186.443 100.167H141.119V141.904H186.443V100.167ZM240.007 100.167H194.683V141.904H240.007V100.167ZM293.571 100.167H248.248V141.904H293.571V100.167ZM569.014 90.8184C565.677 90.8184 562.958 91.9453 560.774 94.1573C558.59 96.3694 557.519 99.2075 557.519 102.588V159.057C546.311 149.792 533.374 145.118 518.664 145.118C501.565 145.118 486.938 151.294 474.824 163.69C462.71 176.044 456.694 190.986 456.694 208.515C456.694 226.044 462.751 240.944 474.824 253.34C486.938 265.694 501.524 271.913 518.664 271.913C535.805 271.913 550.226 265.736 562.504 253.34C574.618 241.111 580.634 226.17 580.634 208.515V102.588C580.634 99.2075 579.521 96.3694 577.255 94.1573C574.989 91.9453 572.269 90.8184 569.014 90.8184ZM554.47 223.874C552.451 228.674 549.69 232.889 546.188 236.479C542.686 240.11 538.565 242.948 533.868 245.076C529.13 247.205 524.103 248.248 518.705 248.248C513.308 248.248 508.157 247.205 503.419 245.076C498.681 242.948 494.601 240.11 491.14 236.52C487.679 232.931 484.919 228.716 482.9 223.916C480.881 219.074 479.851 213.941 479.851 208.515C479.851 203.089 480.881 197.956 482.9 193.114C484.919 188.273 487.679 184.099 491.14 180.51C494.601 176.921 498.722 174.083 503.419 171.954C508.157 169.825 513.225 168.782 518.705 168.782C524.185 168.782 529.13 169.825 533.868 171.954C538.606 174.083 542.686 176.921 546.188 180.552C549.69 184.183 552.451 188.398 554.47 193.156C556.489 197.956 557.519 203.048 557.519 208.473C557.519 213.899 556.489 219.033 554.47 223.791V223.874ZM1075.57 163.732C1063.33 151.378 1048.7 145.159 1031.73 145.159C1014.75 145.159 1000 151.336 987.886 163.732C975.772 176.086 969.757 191.028 969.757 208.557C969.757 226.086 975.814 240.986 987.886 253.382C1000 265.736 1014.59 271.954 1031.73 271.954C1047.3 271.954 1060.77 266.821 1072.23 256.554C1074.45 254.216 1075.57 251.378 1075.57 248.081C1075.57 244.784 1074.5 241.863 1072.31 239.65C1070.13 237.438 1067.37 236.312 1064.07 236.312C1061.19 236.395 1058.63 237.355 1056.45 239.275C1052.99 242.28 1049.24 244.575 1045.16 246.078C1041.08 247.58 1036.63 248.332 1031.77 248.332C1027.48 248.332 1023.36 247.664 1019.45 246.287C1015.53 244.909 1011.87 243.031 1008.61 240.569C1005.31 238.106 1002.47 235.185 1000.04 231.721C997.61 228.298 995.756 224.5 994.52 220.327H1082.16C1085.41 220.327 1088.13 219.2 1090.4 216.988C1092.67 214.776 1093.78 211.938 1093.78 208.557C1093.78 199.792 1092.25 191.654 1089.25 184.183C1086.24 176.67 1081.66 169.867 1075.65 163.774L1075.57 163.732ZM994.437 196.787C995.632 192.655 997.445 188.857 999.876 185.393C1002.31 181.971 1005.19 179.007 1008.49 176.545C1011.83 174.083 1015.45 172.204 1019.45 170.827C1023.44 169.45 1027.52 168.782 1031.73 168.782C1035.93 168.782 1040.01 169.45 1043.96 170.827C1047.92 172.204 1051.55 174.083 1054.8 176.545C1058.1 179.007 1060.98 181.929 1063.41 185.393C1065.88 188.816 1067.74 192.614 1069.02 196.787H994.437V196.787ZM1196.95 153.089C1194.89 151.044 1192.29 149.458 1189.16 148.289C1186.03 147.121 1182.61 146.328 1178.86 145.869C1175.15 145.41 1171.65 145.201 1168.4 145.201C1161.02 145.201 1154.1 146.411 1147.59 148.832C1141.08 151.253 1135.06 154.717 1129.54 159.224V156.971C1129.54 153.715 1128.43 150.961 1126.16 148.665C1123.9 146.37 1121.22 145.201 1118.05 145.201C1114.87 145.201 1112.07 146.37 1109.81 148.665C1107.54 150.961 1106.43 153.757 1106.43 156.971V260.185C1106.43 263.44 1107.54 266.195 1109.81 268.49C1112.07 270.786 1114.79 271.954 1118.05 271.954C1121.3 271.954 1123.94 270.786 1126.16 268.49C1128.43 266.195 1129.54 263.398 1129.54 260.185V208.557C1129.54 203.048 1130.57 197.872 1132.59 193.031C1134.61 188.189 1137.37 184.016 1140.87 180.427C1144.38 176.837 1148.5 173.999 1153.19 171.954C1157.93 169.867 1162.96 168.824 1168.36 168.824C1173.75 168.824 1178.86 169.784 1183.52 171.662C1185.37 172.497 1186.98 172.914 1188.38 172.914C1189.99 172.914 1191.51 172.622 1192.91 171.996C1194.31 171.37 1195.55 170.535 1196.58 169.45C1197.61 168.365 1198.43 167.113 1199.05 165.652C1199.67 164.233 1200 162.689 1200 161.019C1200 157.764 1198.97 155.134 1196.91 153.089H1196.95ZM699.587 163.732C687.35 151.378 672.723 145.159 655.747 145.159C638.771 145.159 624.021 151.336 611.907 163.732C599.793 176.086 593.778 191.028 593.778 208.557C593.778 226.086 599.834 240.986 611.907 253.382C624.021 265.736 638.607 271.954 655.747 271.954C672.888 271.954 687.309 265.777 699.587 253.382C711.701 241.153 717.717 226.211 717.717 208.557C717.634 199.792 716.11 191.695 713.143 184.225C710.135 176.754 705.644 169.909 699.587 163.732ZM691.553 223.874C689.534 228.674 686.773 232.889 683.271 236.479C679.769 240.11 675.648 242.948 670.951 245.076C666.254 247.205 661.186 248.248 655.788 248.248C650.391 248.248 645.24 247.205 640.502 245.076C635.764 242.948 631.684 240.11 628.223 236.52C624.762 232.931 622.002 228.716 619.983 223.916C617.964 219.074 616.934 213.941 616.934 208.515C616.934 203.089 617.964 197.956 619.983 193.114C622.002 188.273 624.762 184.099 628.223 180.51C631.684 176.921 635.805 174.083 640.502 171.954C645.24 169.825 650.308 168.782 655.788 168.782C661.268 168.782 666.213 169.825 670.951 171.954C675.689 174.083 679.769 176.921 683.271 180.552C686.773 184.183 689.534 188.398 691.553 193.156C693.572 197.956 694.602 203.048 694.602 208.473C694.602 213.899 693.572 219.033 691.553 223.791V223.874ZM957.231 156.929C957.231 155.343 956.901 153.84 956.283 152.421C955.665 151.002 954.841 149.709 953.811 148.623C952.781 147.538 951.545 146.662 950.144 146.077C948.743 145.493 947.219 145.159 945.612 145.159C943.304 145.159 941.244 145.744 939.431 146.954L873.259 190.986V102.672C873.259 99.3327 872.146 96.5363 869.88 94.2408C867.614 91.9453 864.936 90.7767 861.763 90.7767C858.59 90.7767 855.789 91.9453 853.522 94.2408C851.256 96.5363 850.144 99.3327 850.144 102.672V260.018C850.144 263.273 851.256 266.07 853.522 268.407C855.789 270.744 858.508 271.913 861.763 271.913C865.018 271.913 867.655 270.744 869.88 268.407C872.146 266.07 873.259 263.273 873.259 260.018V219.158L886.773 210.101L937.907 268.824C939.967 270.869 942.563 271.871 945.653 271.871C947.26 271.871 948.784 271.579 950.185 270.953C951.586 270.368 952.822 269.492 953.852 268.407C954.882 267.322 955.706 266.07 956.324 264.609C956.943 263.19 957.272 261.646 957.272 260.101C957.272 257.013 956.201 254.258 954.058 251.838L906.469 197.038L952.822 166.236C955.789 164.191 957.231 161.061 957.231 156.845V156.929ZM765.1 180.427C768.644 176.837 772.764 173.999 777.503 171.954C782.241 169.867 787.268 168.824 792.665 168.824C797.527 168.824 802.018 169.659 806.18 171.328C810.3 172.997 814.256 175.46 818.005 178.674C820.23 180.468 822.744 181.386 825.545 181.386C828.883 181.386 831.602 180.26 833.786 178.006C835.97 175.752 837.041 172.914 837.041 169.533C837.041 166.153 835.723 163.022 833.044 160.602C821.672 150.335 808.199 145.201 792.665 145.201C775.566 145.201 760.939 151.378 748.825 163.774C736.711 176.128 730.696 191.069 730.696 208.599C730.696 226.128 736.753 241.028 748.825 253.423C760.939 265.777 775.525 271.996 792.665 271.996C808.158 271.996 821.631 266.863 833.044 256.595C835.475 254.091 836.712 251.211 836.712 247.873C836.712 244.534 835.64 241.654 833.456 239.442C831.273 237.23 828.512 236.103 825.216 236.103C822.414 236.186 819.983 237.021 817.923 238.607C814.215 241.863 810.342 244.283 806.18 245.911C802.06 247.539 797.569 248.332 792.665 248.332C787.268 248.332 782.241 247.288 777.503 245.201C772.764 243.115 768.644 240.277 765.1 236.729C761.557 233.181 758.755 228.924 756.736 224.125C754.717 219.283 753.687 214.108 753.687 208.599C753.687 203.089 754.717 197.914 756.736 193.073C758.755 188.231 761.557 184.058 765.1 180.468V180.427Z" fill="white"/>
</svg>
