<svg xmlns="http://www.w3.org/2000/svg" viewBox="0 0 252.14 74.62"><defs><style>.cls-1{fill:#1a3764;}</style></defs><g id="Layer_2" data-name="Layer 2"><g id="Layer_4" data-name="Layer 4"><path class="cls-1" d="M95.19,10.31v.53a2.5,2.5,0,0,0-1.24.28,2.65,2.65,0,0,0-.91,1,18,18,0,0,0-.91,2.41L86.68,30.31h-.57l-4.46-12.5-4.42,12.5h-.52L70.9,14.07c-.43-1.21-.71-1.92-.82-2.14a2,2,0,0,0-.79-.82,2.84,2.84,0,0,0-1.35-.27v-.53h7.24v.53h-.35a1.75,1.75,0,0,0-1.16.35,1.07,1.07,0,0,0-.41.84,9.77,9.77,0,0,0,.64,2.32l3.85,11L81,16l-.58-1.64L80,13a6.87,6.87,0,0,0-.68-1.27,1.55,1.55,0,0,0-.46-.46,2.51,2.51,0,0,0-.72-.38,3,3,0,0,0-.86-.09v-.53h7.61v.53h-.52a1.7,1.7,0,0,0-1.18.35,1.21,1.21,0,0,0-.38.94,9.33,9.33,0,0,0,.65,2.56l3.75,10.63,3.72-10.77a9.11,9.11,0,0,0,.63-2.48,1.13,1.13,0,0,0-.73-1,4.07,4.07,0,0,0-1.43-.21v-.53Z"/><path class="cls-1" d="M101.46,28a21.15,21.15,0,0,1-2.55,1.81,3.9,3.9,0,0,1-1.66.36A3,3,0,0,1,95,29.2a3.42,3.42,0,0,1-.89-2.47,3.12,3.12,0,0,1,.43-1.67,5.83,5.83,0,0,1,2.06-1.85,32.65,32.65,0,0,1,4.86-2.1v-.52a4.28,4.28,0,0,0-.63-2.71A2.25,2.25,0,0,0,99,17.14a2.06,2.06,0,0,0-1.44.49A1.48,1.48,0,0,0,97,18.76l0,.84a1.41,1.41,0,0,1-.34,1,1.15,1.15,0,0,1-.89.36A1.14,1.14,0,0,1,95,20.6a1.48,1.48,0,0,1-.34-1,3,3,0,0,1,1.27-2.28,5.49,5.49,0,0,1,3.56-1,6.11,6.11,0,0,1,2.89.59,2.71,2.71,0,0,1,1.25,1.39,8,8,0,0,1,.26,2.54v4.49a20.12,20.12,0,0,0,.07,2.31,1,1,0,0,0,.24.57.54.54,0,0,0,.38.14.78.78,0,0,0,.41-.1,8.13,8.13,0,0,0,1.16-1.05V28C105,29.4,104,30.12,103,30.12a1.41,1.41,0,0,1-1.13-.49A2.64,2.64,0,0,1,101.46,28Zm0-.94V22a29.61,29.61,0,0,0-2.81,1.22A5,5,0,0,0,97,24.54a2.54,2.54,0,0,0-.49,1.51,2.5,2.5,0,0,0,.62,1.73,1.89,1.89,0,0,0,1.43.68A5.22,5.22,0,0,0,101.46,27Z"/><path class="cls-1" d="M111.62,9.36V26.88a4.8,4.8,0,0,0,.18,1.64,1.28,1.28,0,0,0,.56.61,3.19,3.19,0,0,0,1.4.21v.52h-6.47v-.52a2.76,2.76,0,0,0,1.24-.19,1.19,1.19,0,0,0,.51-.62,4.63,4.63,0,0,0,.19-1.65v-12a20.22,20.22,0,0,0-.1-2.74,1.23,1.23,0,0,0-.32-.7.84.84,0,0,0-.57-.19,2.74,2.74,0,0,0-.95.23L107,11,111,9.36Z"/><path class="cls-1" d="M119.12,12.32v4.33h3.09v1h-3.09v8.57a2.85,2.85,0,0,0,.37,1.73,1.15,1.15,0,0,0,.94.44,1.64,1.64,0,0,0,.93-.29,2,2,0,0,0,.69-.87h.56a4.48,4.48,0,0,1-1.43,2.12,3.05,3.05,0,0,1-1.9.72,2.62,2.62,0,0,1-1.3-.37,2.34,2.34,0,0,1-.94-1.05,5.6,5.6,0,0,1-.3-2.12V17.66h-2.09v-.47a5.32,5.32,0,0,0,1.62-1.08,8.17,8.17,0,0,0,1.48-1.79,16.06,16.06,0,0,0,.92-2Z"/><path class="cls-1" d="M125.71,21.63a6.77,6.77,0,0,0,1.43,4.61,4.33,4.33,0,0,0,3.38,1.67,3.65,3.65,0,0,0,2.26-.71,5.27,5.27,0,0,0,1.61-2.44l.44.29a6.85,6.85,0,0,1-1.75,3.59,4.72,4.72,0,0,1-3.65,1.62,5.3,5.3,0,0,1-4.07-1.85,7.08,7.08,0,0,1-1.7-5,7.5,7.5,0,0,1,1.74-5.28,5.65,5.65,0,0,1,4.36-1.9,4.9,4.9,0,0,1,3.65,1.46,5.38,5.38,0,0,1,1.42,3.92Zm0-.84h6.11a5.92,5.92,0,0,0-.3-1.79,2.83,2.83,0,0,0-1.08-1.26,2.68,2.68,0,0,0-1.49-.47,3,3,0,0,0-2.14.93A4,4,0,0,0,125.71,20.79Z"/><path class="cls-1" d="M140.46,16.27v3c1.1-2,2.24-3,3.4-3a1.86,1.86,0,0,1,1.31.48,1.46,1.46,0,0,1,.52,1.12,1.33,1.33,0,0,1-.38.95,1.18,1.18,0,0,1-.89.39,1.91,1.91,0,0,1-1.13-.5,1.91,1.91,0,0,0-.93-.5.87.87,0,0,0-.56.29,6.64,6.64,0,0,0-1.34,1.95v6.33a3.91,3.91,0,0,0,.27,1.65,1.53,1.53,0,0,0,.66.65,3,3,0,0,0,1.37.26v.52H136v-.52a2.74,2.74,0,0,0,1.5-.32,1.22,1.22,0,0,0,.51-.73,8.34,8.34,0,0,0,.07-1.4V21.77A19.19,19.19,0,0,0,138,19a1.07,1.07,0,0,0-.34-.65,1,1,0,0,0-.63-.2,2.76,2.76,0,0,0-1,.22l-.14-.52,4-1.61Z"/><path class="cls-1" d="M159,19.38H168V13.79a6.86,6.86,0,0,0-.18-2,1.3,1.3,0,0,0-.61-.62,2.65,2.65,0,0,0-1.31-.35h-.69v-.53h8.36v.53h-.69a2.75,2.75,0,0,0-1.31.34,1.18,1.18,0,0,0-.63.7,6.86,6.86,0,0,0-.17,1.91V26.4a6.62,6.62,0,0,0,.19,2,1.29,1.29,0,0,0,.59.62,2.75,2.75,0,0,0,1.33.35h.69v.53h-8.36v-.53h.69a2.06,2.06,0,0,0,1.74-.71A4.25,4.25,0,0,0,168,26.4V20.45H159V26.4a6.62,6.62,0,0,0,.19,2,1.3,1.3,0,0,0,.61.62,2.65,2.65,0,0,0,1.31.35h.7v.53h-8.37v-.53h.69a2.1,2.1,0,0,0,1.76-.71,4.43,4.43,0,0,0,.34-2.22V13.79a6.86,6.86,0,0,0-.18-2,1.34,1.34,0,0,0-.59-.62,2.78,2.78,0,0,0-1.33-.35h-.69v-.53h8.37v.53h-.7a2.75,2.75,0,0,0-1.31.34,1.19,1.19,0,0,0-.62.7,6.37,6.37,0,0,0-.18,1.91Z"/><path class="cls-1" d="M177.9,27.06a1.52,1.52,0,0,1,1.13.47,1.55,1.55,0,0,1,.47,1.13A1.57,1.57,0,0,1,179,29.8a1.61,1.61,0,0,1-2.27-2.28A1.6,1.6,0,0,1,177.9,27.06Z"/><path class="cls-1" d="M207.09,9.86l.5,6.17h-.5a8.46,8.46,0,0,0-2-3.47,6.18,6.18,0,0,0-4.48-1.69,6.38,6.38,0,0,0-5.68,3,10.57,10.57,0,0,0-1.63,5.94,11.89,11.89,0,0,0,1.08,5.1,7.58,7.58,0,0,0,2.83,3.38,6.79,6.79,0,0,0,3.6,1.08,7.64,7.64,0,0,0,2.09-.28,8.62,8.62,0,0,0,2-.8V22.59a5.12,5.12,0,0,0-.23-1.92A1.49,1.49,0,0,0,204,20a4,4,0,0,0-1.65-.24v-.55h7.57v.55h-.36a1.61,1.61,0,0,0-1.54.75,4.94,4.94,0,0,0-.29,2.1v6a15.19,15.19,0,0,1-3.27,1.31,14.32,14.32,0,0,1-3.59.42q-5.67,0-8.61-3.64A9.69,9.69,0,0,1,190,20.39a11,11,0,0,1,5.28-9.27,9.84,9.84,0,0,1,5.08-1.26,9.53,9.53,0,0,1,1.93.18,17.24,17.24,0,0,1,2.48.76,4.06,4.06,0,0,0,1.08.3.58.58,0,0,0,.47-.25,1.87,1.87,0,0,0,.23-1Z"/><path class="cls-1" d="M218.69,28a21.15,21.15,0,0,1-2.55,1.81,3.9,3.9,0,0,1-1.66.36,3,3,0,0,1-2.25-.93,3.46,3.46,0,0,1-.89-2.47,3.22,3.22,0,0,1,.43-1.67,5.83,5.83,0,0,1,2.06-1.85,32.65,32.65,0,0,1,4.86-2.1v-.52a4.36,4.36,0,0,0-.62-2.71,2.28,2.28,0,0,0-1.83-.74,2.09,2.09,0,0,0-1.44.49,1.52,1.52,0,0,0-.55,1.13l0,.84a1.41,1.41,0,0,1-.34,1,1.23,1.23,0,0,1-1.76,0,1.47,1.47,0,0,1-.33-1,3,3,0,0,1,1.26-2.28,5.51,5.51,0,0,1,3.56-1,6.11,6.11,0,0,1,2.89.59,2.67,2.67,0,0,1,1.25,1.39,7.71,7.71,0,0,1,.26,2.54v4.49a23,23,0,0,0,.07,2.31,1,1,0,0,0,.24.57.54.54,0,0,0,.38.14.78.78,0,0,0,.41-.1,8.13,8.13,0,0,0,1.16-1.05V28c-1.07,1.44-2.1,2.16-3.08,2.16a1.37,1.37,0,0,1-1.12-.49A2.63,2.63,0,0,1,218.69,28Zm0-.94V22a29.61,29.61,0,0,0-2.81,1.22,5,5,0,0,0-1.63,1.33,2.61,2.61,0,0,0-.49,1.51,2.5,2.5,0,0,0,.62,1.73,1.91,1.91,0,0,0,1.43.68A5.22,5.22,0,0,0,218.69,27Z"/><path class="cls-1" d="M227.85,25.05a4.37,4.37,0,0,1-2.51-4,4.48,4.48,0,0,1,1.48-3.37,5.24,5.24,0,0,1,3.78-1.41,5.71,5.71,0,0,1,3.27.92h2.8a4.45,4.45,0,0,1,.72,0,.23.23,0,0,1,.14.13.84.84,0,0,1,.09.46,1.28,1.28,0,0,1-.07.52.3.3,0,0,1-.15.11,3,3,0,0,1-.73,0H235a4.45,4.45,0,0,1-.6,5.81,5.37,5.37,0,0,1-3.79,1.31,7.51,7.51,0,0,1-2-.29,3.46,3.46,0,0,0-.85,1,1.5,1.5,0,0,0-.23.7.65.65,0,0,0,.24.47,1.65,1.65,0,0,0,.93.33c.27,0,.94.08,2,.11a37.67,37.67,0,0,1,3.85.2,3.6,3.6,0,0,1,2.14,1,2.73,2.73,0,0,1,.8,2,4.17,4.17,0,0,1-1.53,3.06,8.25,8.25,0,0,1-5.87,2.1,8.47,8.47,0,0,1-4.7-1.25q-1.08-.72-1.08-1.5a1.58,1.58,0,0,1,.16-.69,7.91,7.91,0,0,1,1-1.49l1.47-1.56a4.29,4.29,0,0,1-1.06-.8,1.15,1.15,0,0,1-.31-.8A2.42,2.42,0,0,1,226,27,9.58,9.58,0,0,1,227.85,25.05Zm-.15,4.81a7.2,7.2,0,0,0-1,1.37,2.47,2.47,0,0,0-.35,1.17,1.47,1.47,0,0,0,.84,1.21,8,8,0,0,0,4.17.89,6.42,6.42,0,0,0,3.82-.91,2.53,2.53,0,0,0,1.24-2,1.09,1.09,0,0,0-.74-1.06,9.68,9.68,0,0,0-3-.38A49.43,49.43,0,0,1,227.7,29.86ZM230.36,17a2.23,2.23,0,0,0-1.79.85,4,4,0,0,0-.72,2.61,5.57,5.57,0,0,0,1,3.53,2.33,2.33,0,0,0,1.9.95,2.26,2.26,0,0,0,1.8-.82,3.92,3.92,0,0,0,.71-2.58,5.72,5.72,0,0,0-1-3.59A2.26,2.26,0,0,0,230.36,17Z"/><path class="cls-1" d="M241.3,21.63a6.77,6.77,0,0,0,1.42,4.61,4.35,4.35,0,0,0,3.39,1.67,3.65,3.65,0,0,0,2.26-.71A5.35,5.35,0,0,0,250,24.76l.44.29a6.87,6.87,0,0,1-1.76,3.59A4.68,4.68,0,0,1,245,30.26a5.32,5.32,0,0,1-4.08-1.85,7.07,7.07,0,0,1-1.69-5A7.5,7.5,0,0,1,241,18.15a5.65,5.65,0,0,1,4.36-1.9A4.91,4.91,0,0,1,249,17.71a5.38,5.38,0,0,1,1.42,3.92Zm0-.84h6.11a5.92,5.92,0,0,0-.3-1.79A2.83,2.83,0,0,0,246,17.74a2.68,2.68,0,0,0-1.49-.47,3,3,0,0,0-2.14.93A4,4,0,0,0,241.3,20.79Z"/><path class="cls-1" d="M79.64,62.45,72.08,46V59.07a4,4,0,0,0,.39,2.25,2.16,2.16,0,0,0,1.69.6h.69v.53H68v-.53h.7a2,2,0,0,0,1.76-.75,4.42,4.42,0,0,0,.31-2.1V46.29a4.32,4.32,0,0,0-.29-1.87,1.58,1.58,0,0,0-.74-.7A4,4,0,0,0,68,43.44v-.53h5.54L80.67,58.2l7-15.29h5.54v.53h-.68a2,2,0,0,0-1.77.75,4.26,4.26,0,0,0-.32,2.1V59.07a3.89,3.89,0,0,0,.4,2.25,2.16,2.16,0,0,0,1.69.6h.68v.53H84.88v-.53h.69a2,2,0,0,0,1.76-.75,4.38,4.38,0,0,0,.32-2.1V46L80.11,62.45Z"/><path class="cls-1" d="M97,54.22a6.82,6.82,0,0,0,1.43,4.62,4.36,4.36,0,0,0,3.38,1.67,3.65,3.65,0,0,0,2.26-.72,5.22,5.22,0,0,0,1.61-2.44l.44.29a6.88,6.88,0,0,1-1.75,3.6,4.72,4.72,0,0,1-3.65,1.62A5.33,5.33,0,0,1,96.6,61a7.12,7.12,0,0,1-1.7-5,7.52,7.52,0,0,1,1.74-5.28A5.67,5.67,0,0,1,101,48.85a4.86,4.86,0,0,1,3.65,1.46,5.35,5.35,0,0,1,1.42,3.91Zm0-.83h6.11a5.8,5.8,0,0,0-.3-1.79,2.85,2.85,0,0,0-1.08-1.27,2.66,2.66,0,0,0-1.49-.46,3,3,0,0,0-2.14.93A4,4,0,0,0,97,53.39Z"/><path class="cls-1" d="M111.75,51.67c1-1,1.53-1.51,1.71-1.66a5.15,5.15,0,0,1,1.39-.85,4,4,0,0,1,1.49-.3,3.29,3.29,0,0,1,2.13.72,3.55,3.55,0,0,1,1.2,2.09,9.72,9.72,0,0,1,2.51-2.27,4.44,4.44,0,0,1,2.1-.54,3.31,3.31,0,0,1,1.87.54,3.62,3.62,0,0,1,1.29,1.77,7.93,7.93,0,0,1,.32,2.62v5.68a5.36,5.36,0,0,0,.18,1.7,1.27,1.27,0,0,0,.54.54,2.65,2.65,0,0,0,1.27.23v.51h-6.52v-.51h.27a2.24,2.24,0,0,0,1.33-.34,1.27,1.27,0,0,0,.48-.73,11.31,11.31,0,0,0,0-1.4V53.79a4.79,4.79,0,0,0-.39-2.28,2,2,0,0,0-1.8-.92,3.46,3.46,0,0,0-1.53.38,8.41,8.41,0,0,0-1.87,1.42l0,.16,0,.62v6.3a5.52,5.52,0,0,0,.15,1.69,1.22,1.22,0,0,0,.57.55,3.26,3.26,0,0,0,1.43.23v.51h-6.68v-.51a3.1,3.1,0,0,0,1.51-.26,1.43,1.43,0,0,0,.57-.78,7.64,7.64,0,0,0,.07-1.43V53.79a4.35,4.35,0,0,0-.47-2.32,2,2,0,0,0-1.78-.92,3.26,3.26,0,0,0-1.54.41,6.11,6.11,0,0,0-1.85,1.43v7.08a5,5,0,0,0,.18,1.69,1.22,1.22,0,0,0,.54.58,3.37,3.37,0,0,0,1.43.2v.51h-6.53v-.51a2.88,2.88,0,0,0,1.27-.2,1.29,1.29,0,0,0,.55-.62,4.84,4.84,0,0,0,.19-1.65v-5a19.27,19.27,0,0,0-.13-2.81,1.2,1.2,0,0,0-.32-.65.9.9,0,0,0-.59-.18,2.88,2.88,0,0,0-1,.21l-.21-.52,4-1.61h.62Z"/><path class="cls-1" d="M137.26,48.86a5.84,5.84,0,0,1,4.81,2.28,7,7,0,0,1,1.54,4.47,8.38,8.38,0,0,1-.85,3.59,6,6,0,0,1-5.66,3.66,5.63,5.63,0,0,1-4.75-2.38,7.38,7.38,0,0,1-1.48-4.5,8,8,0,0,1,.9-3.61,6,6,0,0,1,5.49-3.51Zm-.45.94a3.06,3.06,0,0,0-1.54.45A3.14,3.14,0,0,0,134,51.84a7.63,7.63,0,0,0-.48,2.93,10.11,10.11,0,0,0,1.15,5,3.4,3.4,0,0,0,3,2.09,2.79,2.79,0,0,0,2.3-1.15,6.52,6.52,0,0,0,.91-4,9,9,0,0,0-1.51-5.54A3.12,3.12,0,0,0,136.81,49.8Z"/><path class="cls-1" d="M149.42,48.86v3c1.11-2,2.24-3,3.41-3a1.87,1.87,0,0,1,1.31.48,1.51,1.51,0,0,1,.52,1.12,1.33,1.33,0,0,1-.38.95,1.2,1.2,0,0,1-.89.39,1.89,1.89,0,0,1-1.13-.5,1.86,1.86,0,0,0-.93-.49.87.87,0,0,0-.57.28A7.14,7.14,0,0,0,149.42,53v6.33A3.82,3.82,0,0,0,149.7,61a1.48,1.48,0,0,0,.66.65,3,3,0,0,0,1.37.26v.51H145v-.51a2.84,2.84,0,0,0,1.5-.32,1.22,1.22,0,0,0,.5-.74,7.31,7.31,0,0,0,.07-1.4V54.37a22.15,22.15,0,0,0-.09-2.75,1.09,1.09,0,0,0-.34-.64,1,1,0,0,0-.63-.2,2.9,2.9,0,0,0-1,.21l-.15-.52,4-1.61Z"/><path class="cls-1" d="M160,48.86V59.47a4.83,4.83,0,0,0,.18,1.65,1.23,1.23,0,0,0,.53.61,2.78,2.78,0,0,0,1.29.21v.51h-6.41v-.51a3,3,0,0,0,1.29-.19,1.31,1.31,0,0,0,.53-.62,4.69,4.69,0,0,0,.19-1.66V54.38a17.48,17.48,0,0,0-.13-2.78,1.1,1.1,0,0,0-.31-.64.9.9,0,0,0-.59-.18,2.93,2.93,0,0,0-1,.21l-.21-.52,4-1.61ZM158.75,42a1.47,1.47,0,0,1,1.46,1.46,1.46,1.46,0,0,1-.43,1,1.38,1.38,0,0,1-1,.43,1.47,1.47,0,0,1-1.47-1.47,1.38,1.38,0,0,1,.43-1A1.43,1.43,0,0,1,158.75,42Z"/><path class="cls-1" d="M171.08,60.55a22.42,22.42,0,0,1-2.56,1.82,3.86,3.86,0,0,1-1.65.36,3,3,0,0,1-2.26-.94,3.44,3.44,0,0,1-.89-2.46,3.14,3.14,0,0,1,.44-1.68,5.68,5.68,0,0,1,2.05-1.84,32.09,32.09,0,0,1,4.87-2.11v-.52a4.3,4.3,0,0,0-.63-2.71,2.27,2.27,0,0,0-1.82-.73,2.05,2.05,0,0,0-1.45.49,1.48,1.48,0,0,0-.54,1.12l0,.84a1.46,1.46,0,0,1-.34,1,1.17,1.17,0,0,1-.89.36,1.1,1.1,0,0,1-.87-.37,1.45,1.45,0,0,1-.34-1,2.93,2.93,0,0,1,1.27-2.28,5.47,5.47,0,0,1,3.56-1,6.22,6.22,0,0,1,2.88.59,2.71,2.71,0,0,1,1.26,1.4,8,8,0,0,1,.26,2.54v4.48a20.12,20.12,0,0,0,.07,2.31.89.89,0,0,0,.24.57.54.54,0,0,0,.38.15.85.85,0,0,0,.4-.1,9.81,9.81,0,0,0,1.17-1.06v.81q-1.62,2.16-3.09,2.16a1.39,1.39,0,0,1-1.12-.49A2.62,2.62,0,0,1,171.08,60.55Zm0-.94v-5a28.75,28.75,0,0,0-2.81,1.23,4.76,4.76,0,0,0-1.63,1.32,2.57,2.57,0,0,0-.49,1.52,2.44,2.44,0,0,0,.62,1.72,1.87,1.87,0,0,0,1.42.69A5.23,5.23,0,0,0,171.08,59.61Z"/><path class="cls-1" d="M181.24,42V59.47a4.76,4.76,0,0,0,.18,1.64,1.33,1.33,0,0,0,.55.62,3.19,3.19,0,0,0,1.4.21v.51H176.9v-.51a2.85,2.85,0,0,0,1.24-.19,1.3,1.3,0,0,0,.52-.62,5,5,0,0,0,.19-1.66v-12a22.41,22.41,0,0,0-.1-2.75,1.2,1.2,0,0,0-.33-.7.89.89,0,0,0-.57-.19,2.74,2.74,0,0,0-.95.23l-.24-.5L180.59,42Z"/><path class="cls-1" d="M197.4,44v7.69H201a2.55,2.55,0,0,0,1.8-.54,3.57,3.57,0,0,0,.75-2.15h.54v6.62h-.54a4,4,0,0,0-.29-1.67,1.88,1.88,0,0,0-.78-.8,3.2,3.2,0,0,0-1.48-.27H197.4V59a6.25,6.25,0,0,0,.19,2,1.23,1.23,0,0,0,.6.62,2.67,2.67,0,0,0,1.33.35h.71v.53h-8.39v-.53h.69a2.07,2.07,0,0,0,1.76-.71,4.38,4.38,0,0,0,.34-2.22V46.37a6.82,6.82,0,0,0-.18-2,1.3,1.3,0,0,0-.6-.61,2.56,2.56,0,0,0-1.32-.35h-.69v-.53h14.54l.19,4.29h-.51a6,6,0,0,0-.87-2,2.84,2.84,0,0,0-1.22-.93,6.63,6.63,0,0,0-2.26-.29Z"/><path class="cls-1" d="M220.28,49.25v8a18.61,18.61,0,0,0,.11,2.8,1.24,1.24,0,0,0,.34.72.87.87,0,0,0,.56.2,2.48,2.48,0,0,0,1-.25l.2.51-3.95,1.63h-.65v-2.8a12.16,12.16,0,0,1-2.59,2.32,4,4,0,0,1-1.89.48,3.09,3.09,0,0,1-1.93-.64,3.34,3.34,0,0,1-1.13-1.65,10.09,10.09,0,0,1-.32-2.86v-5.9a2.81,2.81,0,0,0-.2-1.29,1.31,1.31,0,0,0-.6-.56,3.47,3.47,0,0,0-1.43-.18v-.53h4.63v8.84a3.29,3.29,0,0,0,.64,2.42,2.25,2.25,0,0,0,1.55.57,3.32,3.32,0,0,0,1.4-.38,7.55,7.55,0,0,0,1.87-1.49V51.73a2.13,2.13,0,0,0-.41-1.52,2.61,2.61,0,0,0-1.71-.43v-.53Z"/><path class="cls-1" d="M227.31,51.66q2.33-2.8,4.43-2.8a3.19,3.19,0,0,1,1.86.54,3.61,3.61,0,0,1,1.24,1.78,8.26,8.26,0,0,1,.32,2.65v5.64a4.62,4.62,0,0,0,.2,1.7,1.11,1.11,0,0,0,.51.56,2.77,2.77,0,0,0,1.3.21v.51h-6.53v-.51h.28a2.19,2.19,0,0,0,1.29-.29,1.49,1.49,0,0,0,.51-.82,8.22,8.22,0,0,0,.06-1.36V54.06a5.48,5.48,0,0,0-.47-2.61,1.66,1.66,0,0,0-1.58-.82,4.78,4.78,0,0,0-3.42,1.88v7a5.16,5.16,0,0,0,.16,1.66,1.34,1.34,0,0,0,.56.61,3.37,3.37,0,0,0,1.43.2v.51h-6.53v-.51h.29a1.55,1.55,0,0,0,1.36-.52,3.66,3.66,0,0,0,.36-2v-4.9a21.58,21.58,0,0,0-.11-2.9,1.3,1.3,0,0,0-.33-.71.93.93,0,0,0-.6-.18,2.88,2.88,0,0,0-1,.21l-.21-.52,4-1.61h.62Z"/><path class="cls-1" d="M247.55,61a6.66,6.66,0,0,1-1.88,1.45,4.63,4.63,0,0,1-2,.44,4.94,4.94,0,0,1-3.78-1.81,6.72,6.72,0,0,1-1.62-4.65,8.43,8.43,0,0,1,1.79-5.2,5.53,5.53,0,0,1,4.6-2.35A4,4,0,0,1,247.55,50V47.52a20.78,20.78,0,0,0-.1-2.78,1.27,1.27,0,0,0-.34-.71.94.94,0,0,0-.58-.19,3.09,3.09,0,0,0-1,.23l-.19-.5L249.28,42h.65V57.22a20.56,20.56,0,0,0,.11,2.83,1.25,1.25,0,0,0,.35.72.85.85,0,0,0,.55.2,3,3,0,0,0,1-.25l.16.51-3.92,1.63h-.67Zm0-1v-6.8a4.59,4.59,0,0,0-.51-1.79,3,3,0,0,0-1.15-1.22,2.83,2.83,0,0,0-1.39-.41,3,3,0,0,0-2.27,1.14,6.49,6.49,0,0,0-1.31,4.38,6.91,6.91,0,0,0,1.27,4.46A3.63,3.63,0,0,0,245,61.27,3.51,3.51,0,0,0,247.55,60Z"/><path class="cls-1" d="M0,43.47V0H54.7V.88c0,13.08,0,26.16,0,39.24a48.94,48.94,0,0,1-.54,7.25,30.7,30.7,0,0,1-8.8,17.55,36.32,36.32,0,0,1-13.29,8.22c-1.44.54-2.91,1-4.37,1.48H27l-2.87-.94A37.89,37.89,0,0,1,9.6,65.16,31.37,31.37,0,0,1,.4,46.46C.26,45.47.13,44.47,0,43.47ZM2.1,2.13v.74q0,18.59,0,37.18a41.08,41.08,0,0,0,.69,7.83,28.7,28.7,0,0,0,9.44,16.81A38.36,38.36,0,0,0,27,72.33a1.53,1.53,0,0,0,.9,0c2.19-.8,4.43-1.5,6.55-2.47A29.93,29.93,0,0,0,48,58.27,32.73,32.73,0,0,0,52.6,40.78c0-12.64,0-25.27,0-37.91V2.13Z"/><path class="cls-1" d="M24.46,48.56l2.85-20.64h.09l2.84,20.64.14.07,9.26-15.45.14.06-3.9,16.91.11.09,9.88-9.44.14.09L40.9,53.32l.11.09,8.29-6.19a6.17,6.17,0,0,1-.17.61A46.7,46.7,0,0,1,44.24,58a25.84,25.84,0,0,1-10.82,8.76c-1.84.86-3.75,1.54-5.63,2.29a1.1,1.1,0,0,1-.69.06,40.42,40.42,0,0,1-11.64-5.85,25.38,25.38,0,0,1-7.65-10C7,51.35,6.18,49.38,5.36,47.44l.16-.13,8.16,6.09.13-.07L8.69,40.89l.14-.09,9.87,9.44.12-.07-3.9-16.93.15-.06,9.24,15.44Z"/><path class="cls-1" d="M49.51,24v3.51a18.48,18.48,0,0,1-2.8-.7,11.14,11.14,0,0,0-9.1,0,7.16,7.16,0,0,1-5.74,0,11,11,0,0,0-9,0,7.45,7.45,0,0,1-6,0,10.85,10.85,0,0,0-8.67,0,25,25,0,0,1-3,.81V24c1.74-.51,3.43-1.08,5.15-1.49a9.46,9.46,0,0,1,6,.47,8.93,8.93,0,0,0,7.18,0,9.76,9.76,0,0,1,7.61,0,9,9,0,0,0,7.18,0,10.3,10.3,0,0,1,7.49-.08C47,23.33,48.22,23.64,49.51,24Z"/><path class="cls-1" d="M22.41,20.31V4.84c.57,0,1.12,0,1.66,0,1.87.06,3.76,0,5.61.22a3.91,3.91,0,0,1,3.5,2.47,3.45,3.45,0,0,1-1.44,4.37,3.39,3.39,0,0,0-.29.21l.38.19a3.53,3.53,0,0,1,2.28,3.34,3.74,3.74,0,0,1-2.21,3.82,8.89,8.89,0,0,1-3.1.81C26.69,20.4,24.57,20.31,22.41,20.31ZM26,17.86a31.11,31.11,0,0,0,3.16-.36,1.72,1.72,0,0,0,1.44-1.81,1.79,1.79,0,0,0-1.45-1.89A31.27,31.27,0,0,0,26,13.45Zm0-6.65C27,11,28,11,29,10.73a1.43,1.43,0,0,0,1-1.54A1.41,1.41,0,0,0,29,7.74a7.42,7.42,0,0,0-3-.27Z"/><path class="cls-1" d="M5.22,4.88H8.81v.76c0,2.76,0,5.52,0,8.28a6.48,6.48,0,0,0,.11,1.32c.37,1.78,1.72,2.63,3.81,2.44a3,3,0,0,0,2.89-3.23c0-2.85,0-5.7,0-8.55v-1h3.71V10c0,1.48,0,3,0,4.44a6,6,0,0,1-5.51,6.13,10,10,0,0,1-4.71-.35,5.29,5.29,0,0,1-3.89-5c-.15-3.37,0-6.75,0-10.13A.67.67,0,0,1,5.22,4.88Z"/><path class="cls-1" d="M48.75,9A8,8,0,0,0,44.9,7.5a4.41,4.41,0,0,0-5,4.11A8.43,8.43,0,0,0,40,14.17a4.28,4.28,0,0,0,4.34,3.53,8.6,8.6,0,0,0,4.72-1.42c.17,1,.34,1.86.47,2.76,0,.12-.14.32-.26.38-3.11,1.71-7.87,1.76-10.67-.68A7.77,7.77,0,0,1,36.1,11.6a7.59,7.59,0,0,1,7.71-7,10.31,10.31,0,0,1,5,.91c.35.17.49.35.4.75C49.05,7.13,48.92,8,48.75,9Z"/><path class="cls-1" d="M49.53,30.19v3.33a6.52,6.52,0,0,1-3.1-.61,10.51,10.51,0,0,0-6.28-.69,14.29,14.29,0,0,0-2.38.75,8,8,0,0,1-6,0,3.61,3.61,0,0,0-.81-.3c-1.05-.12-1.39-.75-1.42-1.73,0-.74-.17-1.48-.29-2.39.77.25,1.46.42,2.11.69a8.07,8.07,0,0,0,4.91.57,18.32,18.32,0,0,0,2.14-.68,10.76,10.76,0,0,1,7.44,0C47,29.5,48.24,29.81,49.53,30.19Z"/><path class="cls-1" d="M5.17,33.73V30.21c1.47-.45,2.86-.9,4.26-1.3a10.53,10.53,0,0,1,7.19.35,8.3,8.3,0,0,0,6.68,0c.57-.23,1.17-.38,1.76-.57a2.61,2.61,0,0,1,.39,0c-.16,1.17-.31,2.3-.48,3.43a.38.38,0,0,1-.25.26c-1.75.58-3.44,1.47-5.36,1.19a11.62,11.62,0,0,1-2.61-.66,11.07,11.07,0,0,0-8.44,0A29,29,0,0,1,5.17,33.73Z"/><path class="cls-1" d="M5.18,39.68V36.35c1.8-.53,3.53-1.09,5.29-1.52A12.12,12.12,0,0,1,13,34.64a.67.67,0,0,1,.5.41c.28,1.05.51,2.1.78,3.24l-1-.09a10.77,10.77,0,0,0-5,.84A6.89,6.89,0,0,1,5.18,39.68Z"/><path class="cls-1" d="M40.42,38.2c.24-1,.49-2.07.72-3.12.07-.35.21-.51.57-.46,1.26.17,2.54.26,3.77.54s2.64.78,4,1.21v3.28a6.94,6.94,0,0,1-2.89-.49,29.58,29.58,0,0,0-3.56-.93A16.69,16.69,0,0,0,40.42,38.2Z"/><path class="cls-1" d="M18.79,36c2.12.37,3.88-.34,5.77-1.1-.13,1-.28,1.95-.35,2.88a1.17,1.17,0,0,1-1,1.23c-.62.14-1.21.39-1.82.56a.63.63,0,0,1-.52-.11C20.19,38.39,19.54,37.27,18.79,36Z"/><path class="cls-1" d="M35.91,36c-.74,1.25-1.37,2.33-2,3.39a.61.61,0,0,1-.54.17c-.83-.23-1.64-.51-2.44-.79a.52.52,0,0,1-.28-.32c-.17-1.13-.31-2.26-.48-3.53C32,35.64,33.77,36.41,35.91,36Z"/></g></g></svg>